<svg fill="#94a3b8" width="94" height="30" viewBox="0 0 94 30" xmlns="http://www.w3.org/2000/svg"><path d="M72.545 24.64c4.03 4.458 10.86 2.11 11.85.22l.24.605a10.143 10.143 0 0 1-3.76 3.193A10.505 10.505 0 0 1 76 29.748a10.305 10.305 0 0 1-9.37-6.222 9.49 9.49 0 0 1-.72-3.368v-.644c.01-.133.01-.267 0-.4a1.363 1.363 0 0 0 0-.23c.03-.1.015-.12.03-.275a5.24 5.24 0 0 1 .06-.43v-.084a9.793 9.793 0 0 1 3.06-5.567c1.63-1.501 3.7-2.44 5.905-2.679.83-.091 1.67-.091 2.5 0l.235.035c1.378.192 2.7.676 3.875 1.42A6.258 6.258 0 0 1 84 14.032c.337.646.553 1.35.635 2.074l-14 3.373.025.275a.969.969 0 0 1 0 .215l.04.324c.014.066.024.133.03.2.03.185.065.37.105.545l.04.185.08.315.05.17.08.274.08.225a7.15 7.15 0 0 0 1.38 2.434Zm6.37-8.3c1.39-.43 1.43-2.783.875-4.197a3.323 3.323 0 0 0-.5-.77c-.553-.666-1.427-.999-2.62-.999a4.662 4.662 0 0 0-2.43.66 6.394 6.394 0 0 0-1.945 1.799 8.933 8.933 0 0 0-1.28 2.598 9.834 9.834 0 0 0-.35 1.534l-.04.325c-.004.08-.004.16 0 .24v.075c-.035.235-.035.485-.035.734l8.325-1.998ZM47.56 24.847l.24.574a10.138 10.138 0 0 1-3.76 3.194 10.505 10.505 0 0 1-4.875 1.089 10.325 10.325 0 0 1-9.375-6.231c-2.62-6.212 1.83-13.837 9.94-13.708.945 0 6.065.555 7.61 4.553l-4.25 1a4.1 4.1 0 0 0 .21-1.405 3.856 3.856 0 0 0-.83-2.538c-.553-.667-1.427-1-2.62-1a4.667 4.667 0 0 0-2.43.66 6.418 6.418 0 0 0-1.91 1.794 8.933 8.933 0 0 0-1.28 2.598 10.488 10.488 0 0 0-.47 3.178 10.783 10.783 0 0 0 .5 3.403c.295.97.79 1.87 1.45 2.639 4.03 4.452 10.85 2.109 11.85.2Zm18.44 0 .26.604a10.143 10.143 0 0 1-3.76 3.193 10.505 10.505 0 0 1-4.885 1.09 10.315 10.315 0 0 1-9.37-6.256c-2.62-6.212 1.83-13.837 9.94-13.708.935 0 6.055.55 7.59 4.548l-4.225 1c.155-.452.228-.928.215-1.405.03-.92-.27-1.82-.845-2.538-.557-.667-1.43-1-2.62-1a4.662 4.662 0 0 0-2.43.66 6.463 6.463 0 0 0-1.91 1.814 8.928 8.928 0 0 0-1.275 2.598 10.488 10.488 0 0 0-.47 3.178 10.788 10.788 0 0 0 .5 3.403 7.29 7.29 0 0 0 1.435 2.619c4.03 4.452 10.85 2.109 11.85.2Zm24.765.89c.045 2.633 1.935 3.032 3.235 3.117v.455H83.515v-.455c1.305-.085 3.235-.48 3.235-3.208V4.023c0-1.25-1.815-1.75-2.025-1.75V1.71h.04l6-1.459v25.485ZM18.24.25s9.935 25.275 10.3 25.995a4.4 4.4 0 0 0 4.09 2.598v.455H20.495v-.455c.105 0 3-.055 3-1.854 0-1.664-3.26-9.554-3.29-9.629L8.09 20.313c-.495 1.205-2.32 5.607-2.32 6.726 0 1.844 3.53 1.804 3.53 1.804v.465H0v-.455c.74-.08 2.535-.08 3.8-2.578.385-.75 7.7-17.395 9.955-22.382.475-1.124-1.29-1.75-1.5-1.75v-.439h.045L18.24.25Zm1.545 16.09h-.005S15.17 4.908 14.915 4.314c-.17.36-6.255 14.611-6.315 14.756l11.185-2.728Z"></path></svg>