<svg class="w-16 h-16 mb-4" viewBox="0 0 64 64" xmlns="http://www.w3.org/2000/svg" xmlns:xlink="http://www.w3.org/1999/xlink"><defs><filter x="-50%" y="-35.7%" width="200%" height="200%" filterUnits="objectBoundingBox" id="fbp1-a"><feOffset dy="1" in="SourceAlpha" result="shadowOffsetOuter1"></feOffset><feGaussianBlur stdDeviation="1" in="shadowOffsetOuter1" result="shadowBlurOuter1"></feGaussianBlur><feComposite in="shadowBlurOuter1" in2="SourceAlpha" operator="out" result="shadowBlurOuter1"></feComposite><feColorMatrix values="0 0 0 0 0.062745098 0 0 0 0 0.11372549 0 0 0 0 0.176470588 0 0 0 0.12 0" in="shadowBlurOuter1"></feColorMatrix></filter><filter x="-50%" y="-35.7%" width="200%" height="200%" filterUnits="objectBoundingBox" id="fbp1-c"><feOffset dy="1" in="SourceAlpha" result="shadowOffsetOuter1"></feOffset><feGaussianBlur stdDeviation="1" in="shadowOffsetOuter1" result="shadowBlurOuter1"></feGaussianBlur><feComposite in="shadowBlurOuter1" in2="SourceAlpha" operator="out" result="shadowBlurOuter1"></feComposite><feColorMatrix values="0 0 0 0 0.062745098 0 0 0 0 0.11372549 0 0 0 0 0.176470588 0 0 0 0.12 0" in="shadowBlurOuter1"></feColorMatrix></filter><filter x="-25%" y="-17.9%" width="150%" height="150%" filterUnits="objectBoundingBox" id="fbp1-e"><feOffset dy="1" in="SourceAlpha" result="shadowOffsetOuter1"></feOffset><feGaussianBlur stdDeviation="1" in="shadowOffsetOuter1" result="shadowBlurOuter1"></feGaussianBlur><feColorMatrix values="0 0 0 0 0.062745098 0 0 0 0 0.11372549 0 0 0 0 0.176470588 0 0 0 0.12 0" in="shadowBlurOuter1"></feColorMatrix></filter><filter x="-25%" y="-17.9%" width="150%" height="150%" filterUnits="objectBoundingBox" id="fbp1-h"><feOffset dy="1" in="SourceAlpha" result="shadowOffsetOuter1"></feOffset><feGaussianBlur stdDeviation="1" in="shadowOffsetOuter1" result="shadowBlurOuter1"></feGaussianBlur><feColorMatrix values="0 0 0 0 0.062745098 0 0 0 0 0.11372549 0 0 0 0 0.176470588 0 0 0 0.12 0" in="shadowBlurOuter1"></feColorMatrix></filter><path d="M43 28h-2v-1c0-2.206-1.794-4-4-4h-1v-2h1c3.309 0 6 2.691 6 6v1Z" id="fbp1-b"></path><path d="M28 43h-1c-3.309 0-6-2.691-6-6v-1h2v1c0 2.206 1.794 4 4 4h1v2Z" id="fbp1-d"></path><path d="M28 30a2 2 0 0 1 2-2h4v-5a1 1 0 0 0-1-1h-5.586l-1.707-1.707A1 1 0 0 0 25 20h-4a1 1 0 0 0-1 1v12a1 1 0 0 0 1 1h7v-4Z" id="fbp1-f"></path><path d="M43 32h-5.586l-1.707-1.707A.996.996 0 0 0 35 30h-4a1 1 0 0 0-1 1v12a1 1 0 0 0 1 1h12a1 1 0 0 0 1-1V33a1 1 0 0 0-1-1Z" id="fbp1-i"></path><linearGradient x1="50%" y1="0%" x2="50%" y2="100%" id="fbp1-g"><stop stop-color="#FFF" offset="0%"></stop><stop stop-color="#DBEAFE" offset="100%"></stop></linearGradient></defs><rect fill="#2174ea" width="64" height="64" rx="32"></rect><use fill="#000" filter="url(#fbp1-a)" xlink:href="#fbp1-b"></use><use fill-opacity=".64" fill="#BFDBFE" xlink:href="#fbp1-b"></use><use fill="#000" filter="url(#fbp1-c)" xlink:href="#fbp1-d"></use><use fill-opacity=".64" fill="#BFDBFE" xlink:href="#fbp1-d"></use><use fill="#000" filter="url(#fbp1-e)" xlink:href="#fbp1-f"></use><use fill="url(#fbp1-g)" xlink:href="#fbp1-f"></use><use fill="#000" filter="url(#fbp1-h)" xlink:href="#fbp1-i"></use><use fill="url(#fbp1-g)" xlink:href="#fbp1-i"></use></svg>