<svg fill="#94a3b8" width="104" height="28" viewBox="0 0 104 28" xmlns="http://www.w3.org/2000/svg"><path d="M14.3 26.195c-1.564.274-3.156.356-4.803.574L4.474 12.113V27.4C2.909 27.562 1.482 27.78 0 28V0h4.172l5.71 15.887V0H14.3v26.195Zm8.646-15.941c1.702 0 4.31-.082 5.874-.082v4.375c-1.949 0-4.227 0-5.874.082v6.508c2.58-.164 5.16-.383 7.768-.465v4.21l-12.16.958V0h12.16v4.375h-7.768v5.879Zm24.1-5.879h-4.557V24.5c-1.482 0-2.964 0-4.391.055V4.375h-4.556V0h13.504v4.375Zm7.136 5.578h6.011v4.375h-6.011v9.926h-4.31V0h12.27v4.375h-7.96v5.578Zm15.096 10.473c2.498.054 5.023.246 7.466.383v4.32c-3.925-.246-7.85-.492-11.857-.574V0h4.391v20.426ZM80.45 25.43c1.4.082 2.882.164 4.309.328V0h-4.31v25.43ZM104 0l-5.572 13.316L104 28c-1.647-.219-3.294-.52-4.94-.793l-3.157-8.094-3.211 7.438c-1.592-.274-3.13-.356-4.721-.575l5.654-12.824L88.52 0h4.72l2.882 7.355L99.197 0H104Z"></path></svg>